<svg width="26" height="22" viewBox="0 0 26 22" fill="none" xmlns="http://www.w3.org/2000/svg">
<path d="M24.0835 18L16.3335 11M9.66683 11L1.91687 18M1.3335 5.16666L10.8592 11.8347C11.6306 12.3746 12.0163 12.6446 12.4358 12.7492C12.8064 12.8416 13.194 12.8416 13.5645 12.7492C13.984 12.6446 14.3697 12.3746 15.1411 11.8347L24.6668 5.16666M6.9335 20.3333H19.0668C21.027 20.3333 22.0071 20.3333 22.7558 19.9519C23.4144 19.6163 23.9498 19.0809 24.2854 18.4223C24.6668 17.6736 24.6668 16.6935 24.6668 14.7333V7.26666C24.6668 5.30648 24.6668 4.32639 24.2854 3.5777C23.9498 2.91913 23.4144 2.3837 22.7558 2.04814C22.0071 1.66666 21.027 1.66666 19.0668 1.66666H6.9335C4.97331 1.66666 3.99322 1.66666 3.24453 2.04814C2.58596 2.3837 2.05053 2.91913 1.71497 3.5777C1.3335 4.32639 1.3335 5.30648 1.3335 7.26666V14.7333C1.3335 16.6935 1.3335 17.6736 1.71497 18.4223C2.05053 19.0809 2.58596 19.6163 3.24453 19.9519C3.99322 20.3333 4.97331 20.3333 6.9335 20.3333Z" stroke="#F6F6F6" stroke-width="2" stroke-linecap="round" stroke-linejoin="round"/>
</svg>
