<svg aria-hidden="true" style="position: absolute; width: 0; height: 0; overflow: hidden;" version="1.1" xmlns="http://www.w3.org/2000/svg" xmlns:xlink="http://www.w3.org/1999/xlink">
<defs>
<symbol id="icon-scrollUp" viewBox="0 0 55 32">
<path d="M26.7 0.138c-0.242 0.067-0.582 0.227-0.76 0.352s-5.936 5.867-12.798 12.758c-9.6 9.644-12.528 12.635-12.705 12.988-0.253 0.462-0.401 1.011-0.401 1.596 0 0.58 0.146 1.126 0.404 1.603l-0.009-0.018c0.888 1.775 2.997 2.535 4.822 1.734 0.329-0.143 2.695-2.462 11.358-11.119l10.942-10.939 10.945 10.93c12.446 12.432 11.346 11.46 12.97 11.46 0.809 0 0.986-0.029 1.452-0.247 0.742-0.349 1.484-1.080 1.845-1.819 0.276-0.565 0.297-0.669 0.297-1.574 0-1.685 1.257-0.279-13.078-14.632-10.403-10.418-12.72-12.694-13.121-12.892-0.397-0.177-0.861-0.28-1.348-0.28-0.289 0-0.57 0.036-0.838 0.104l0.023-0.005z"></path>
</symbol>
</defs>
</svg>
