<svg
  xmlns="http://www.w3.org/2000/svg"
  aria-hidden="true"
  style="position: absolute; width: 0; height: 0; overflow: hidden"
>
  <defs>

    <symbol id="icon-pagination-prev" viewBox="0 0 18 32">
      <path
        d="M6.405 14.377c-0.418 0.414-0.676 0.988-0.676 1.623s0.258 1.209 0.676 1.623l0 0 10.491 10.469c0.417 0.414 0.676 0.988 0.676 1.623 0 1.263-1.024 2.287-2.287 2.287-0.629 0-1.198-0.254-1.612-0.664l-10.491-10.491c-1.239-1.241-2.005-2.954-2.005-4.846s0.766-3.605 2.005-4.846l10.491-10.491c0.413-0.41 0.983-0.664 1.611-0.664 1.263 0 2.287 1.024 2.287 2.287 0 0.634-0.258 1.208-0.675 1.623l-0 0-10.491 10.469z"
      ></path>
    </symbol>
    <symbol id="icon-pagination-next" viewBox="0 0 18 32">
      <path
        d="M11.168 17.623c0.418-0.414 0.676-0.988 0.676-1.623s-0.258-1.209-0.676-1.623l-0-0-10.491-10.469c-0.417-0.414-0.676-0.988-0.676-1.623 0-1.263 1.024-2.287 2.287-2.287 0.629 0 1.198 0.254 1.612 0.664l10.491 10.491c1.239 1.241 2.005 2.954 2.005 4.846s-0.766 3.605-2.005 4.846l-10.491 10.491c-0.413 0.41-0.983 0.664-1.611 0.664-1.263 0-2.287-1.024-2.287-2.287 0-0.634 0.258-1.208 0.675-1.623l0-0 10.491-10.469z"
      ></path>
    </symbol>
    <symbol id="icon-pagination-last" viewBox="0 0 34 32">
      <path
        d="M27.168 17.623c0.417-0.415 0.675-0.989 0.675-1.623s-0.258-1.208-0.675-1.623l-0-0-10.491-10.469c-0.417-0.414-0.676-0.988-0.676-1.623 0-1.263 1.024-2.287 2.287-2.287 0.629 0 1.198 0.254 1.612 0.664l10.491 10.491c1.239 1.241 2.005 2.954 2.005 4.846s-0.766 3.605-2.005 4.846l-10.491 10.491c-0.413 0.41-0.983 0.664-1.611 0.664-1.263 0-2.287-1.024-2.287-2.287 0-0.634 0.258-1.208 0.675-1.623l0-0 10.491-10.469z"
      ></path>
      <path
        d="M11.168 17.623c0.418-0.414 0.676-0.988 0.676-1.623s-0.258-1.209-0.676-1.623l-0-0-10.491-10.469c-0.417-0.414-0.676-0.988-0.676-1.623 0-1.263 1.024-2.287 2.287-2.287 0.629 0 1.198 0.254 1.612 0.664l10.491 10.491c1.239 1.241 2.005 2.954 2.005 4.846s-0.766 3.605-2.005 4.846l-10.491 10.491c-0.413 0.41-0.983 0.664-1.611 0.664-1.263 0-2.287-1.024-2.287-2.287 0-0.634 0.258-1.208 0.675-1.623l0-0 10.491-10.469z"
      ></path>
    </symbol>
    <symbol id="icon-pagination-first" viewBox="0 0 32 32">
      <path
        d="M19.812 13.419c-0.39 0.387-0.631 0.922-0.631 1.515s0.241 1.128 0.631 1.515l0 0 9.792 9.771c0.389 0.387 0.631 0.923 0.631 1.515 0 1.179-0.956 2.135-2.135 2.135-0.587 0-1.118-0.237-1.504-0.62l-9.792-9.792c-1.156-1.158-1.872-2.757-1.872-4.523s0.715-3.365 1.872-4.523l9.792-9.792c0.386-0.383 0.917-0.62 1.504-0.62 1.179 0 2.135 0.956 2.135 2.135 0 0.592-0.241 1.128-0.63 1.515l-0 0-9.792 9.771z"
      ></path>
      <path
        d="M4.879 13.419c-0.39 0.387-0.631 0.922-0.631 1.515s0.241 1.128 0.631 1.515l0 0 9.792 9.771c0.39 0.386 0.632 0.922 0.632 1.515s-0.242 1.128-0.632 1.514l-0 0c-0.386 0.383-0.917 0.62-1.504 0.62s-1.118-0.237-1.504-0.62l-9.792-9.792c-1.157-1.158-1.872-2.757-1.872-4.523s0.715-3.365 1.872-4.523l9.792-9.792c0.386-0.383 0.917-0.62 1.504-0.62 1.179 0 2.135 0.956 2.135 2.135 0 0.592-0.241 1.128-0.63 1.515l-0 0-9.792 9.771z"
      ></path>
    </symbol>
  </defs>
</svg>
