<svg aria-hidden="true" style="position: absolute; width: 0; height: 0; overflow: hidden;" version="1.1" xmlns="http://www.w3.org/2000/svg" xmlns:xlink="http://www.w3.org/1999/xlink">
<defs>
<symbol id="icon-Lock" viewBox="0 0 25 32">
<path d="M22.814 8.592h-4.444v-1.481c0-3.273-2.653-5.926-5.926-5.926s-5.926 2.653-5.926 5.926v0 1.481h-4.444c-0.818 0-1.481 0.663-1.481 1.481 0 0.001 0 0.001 0 0.002v-0 16.295c0 2.455 1.99 4.444 4.444 4.444v0h14.814c2.455 0 4.444-1.99 4.444-4.444v0-16.295c0-0.818-0.663-1.482-1.481-1.483h-0zM9.481 7.111c-0.001-0.022-0.001-0.047-0.001-0.073 0-1.637 1.327-2.964 2.964-2.964s2.964 1.327 2.964 2.964c0 0.026-0 0.051-0.001 0.076l0-0.004v1.481h-5.925v-1.481zM21.333 26.37c0 0.001 0 0.001 0 0.002 0 0.818-0.663 1.481-1.481 1.481-0.001 0-0.001 0-0.002 0h-14.814c-0.818 0-1.481-0.663-1.481-1.481 0-0.001 0-0.001 0-0.002v0-14.814h2.962v1.481c0 0.818 0.663 1.482 1.482 1.482s1.482-0.663 1.482-1.482v-1.481h5.925v1.481c0 0.818 0.663 1.482 1.482 1.482s1.482-0.663 1.482-1.482v0-1.481h2.964v14.814z"></path>
</symbol>
<symbol id="icon-heroicons-solid_menu-4" viewBox="0 0 32 32">
<path d="M4.799 8.001c0-0.424 0.169-0.831 0.469-1.131s0.707-0.469 1.131-0.469h19.2c0.424 0 0.831 0.169 1.131 0.469s0.469 0.707 0.469 1.131-0.169 0.831-0.469 1.131c-0.3 0.3-0.707 0.469-1.131 0.469h-19.2c-0.424 0-0.831-0.169-1.131-0.469s-0.469-0.707-0.469-1.131z"></path>
<path d="M4.799 16.001c0-0.424 0.169-0.831 0.469-1.131s0.707-0.469 1.131-0.469h19.2c0.424 0 0.831 0.169 1.131 0.469s0.469 0.707 0.469 1.131c0 0.424-0.169 0.831-0.469 1.131s-0.707 0.469-1.131 0.469h-19.2c-0.424 0-0.831-0.169-1.131-0.469s-0.469-0.707-0.469-1.131z"></path>
<path d="M4.799 24.001c0-0.424 0.169-0.831 0.469-1.131s0.707-0.469 1.131-0.469h19.2c0.424 0 0.831 0.169 1.131 0.469s0.469 0.707 0.469 1.131c0 0.424-0.169 0.831-0.469 1.131s-0.707 0.469-1.131 0.469h-19.2c-0.424 0-0.831-0.169-1.131-0.469s-0.469-0.707-0.469-1.131z"></path>
</symbol>
<symbol id="icon-heroicons-solid_menu" viewBox="0 0 32 32">
<path d="M4.799 8.001c0-0.424 0.169-0.831 0.469-1.131s0.707-0.469 1.131-0.469h19.2c0.424 0 0.831 0.169 1.131 0.469s0.469 0.707 0.469 1.131-0.169 0.831-0.469 1.131c-0.3 0.3-0.707 0.469-1.131 0.469h-19.2c-0.424 0-0.831-0.169-1.131-0.469s-0.469-0.707-0.469-1.131z"></path>
<path d="M4.799 16.001c0-0.424 0.169-0.831 0.469-1.131s0.707-0.469 1.131-0.469h19.2c0.424 0 0.831 0.169 1.131 0.469s0.469 0.707 0.469 1.131c0 0.424-0.169 0.831-0.469 1.131s-0.707 0.469-1.131 0.469h-19.2c-0.424 0-0.831-0.169-1.131-0.469s-0.469-0.707-0.469-1.131z"></path>
<path d="M4.799 24.001c0-0.424 0.169-0.831 0.469-1.131s0.707-0.469 1.131-0.469h19.2c0.424 0 0.831 0.169 1.131 0.469s0.469 0.707 0.469 1.131c0 0.424-0.169 0.831-0.469 1.131s-0.707 0.469-1.131 0.469h-19.2c-0.424 0-0.831-0.169-1.131-0.469s-0.469-0.707-0.469-1.131z"></path>
</symbol>
</defs>
</svg>
