<svg
  xmlns="http://www.w3.org/2000/svg"
  aria-hidden="true"
  style="position: absolute; width: 0; height: 0; overflow: hidden"
>
  <defs>
    <symbol id="menu" viewBox="0 0 48 32">
      <path
        d="M2.36.078c-.65.168-1.084.554-1.236 1.1-.108.388-.108 1.256 0 1.644.106.38.49.824.868 1.002.268.126 1.734.138 21.848.156 24.138.024 22.116.074 22.676-.546.328-.362.444-.736.444-1.434 0-.696-.116-1.072-.442-1.432-.56-.62 1.456-.568-22.508-.56C12.234.012 2.492.044 2.36.078zM2.222 9.44c-.782.234-1.182.86-1.182 1.844 0 .994.288 1.558.952 1.866l.368.17h16.92c15.988 0 16.94-.008 17.286-.142.734-.282 1.058-.852 1.062-1.862.006-1.032-.392-1.646-1.218-1.874-.356-.1-33.862-.1-34.188-.002zm.294 9.278c-1.024.152-1.476.764-1.476 1.998 0 .822.25 1.348.788 1.666l.372.218h43.6l.372-.218c.538-.318.788-.844.788-1.666 0-.994-.288-1.558-.952-1.866l-.368-.17-21.36-.01c-11.748-.006-21.542.016-21.764.048zm-.156 9.36c-.652.168-1.084.554-1.236 1.1-.108.388-.108 1.256 0 1.644.106.38.49.824.868 1.002.268.126 1.446.136 17.328.136h17.04l.386-.19c.228-.112.464-.31.582-.488.414-.624.414-1.94 0-2.564a1.606 1.606 0 0 0-.582-.488l-.386-.19-16.88-.012c-9.284-.006-16.988.016-17.12.05z"
      />
    </symbol>
    </defs>
</svg>